<?xml version="1.0" encoding="UTF-8"?>
<svg version="1.1" xmlns="http://www.w3.org/2000/svg" width="16" height="16">
<path d="M0 0 C4.0743356 0.84881992 5.54405875 2.30225596 8 5.625 C8.625 8.625 8.625 8.625 8 11.625 C5.54405875 14.94774404 4.0743356 16.40118008 0 17.25 C-4.0743356 16.40118008 -5.54405875 14.94774404 -8 11.625 C-8.625 8.625 -8.625 8.625 -8 5.625 C-5.54405875 2.30225596 -4.0743356 0.84881992 0 0 Z " fill="#F4961A" transform="translate(8,-0.625)"/>
<path d="M0 0 C3.33324662 0.21738565 5.3546755 0.41920795 7.875 2.6875 C9.38185358 5.78492126 9.55651279 7.59135918 9 11 C6.50915752 14.36996335 5.11411135 15.81810427 0.9375 16.5 C-2.24602727 15.95812302 -3.72941062 15.27058938 -6 13 C-6 12.34 -6 11.68 -6 11 C-3.03 11.33 -0.06 11.66 3 12 C4.21297649 9.7193293 4.21297649 9.7193293 5 7 C4.23396041 4.7142289 4.23396041 4.7142289 3 3 C2.01 3.33 1.02 3.66 0 4 C-0.33 3.01 -0.66 2.02 -1 1 C-0.67 0.67 -0.34 0.34 0 0 Z " fill="#F39110" transform="translate(7,0)"/>
<path d="M0 0 C0.33 0.66 0.66 1.32 1 2 C1.99 2.33 2.98 2.66 4 3 C4.33 3.33 4.66 3.66 5 4 C5.33 3.01 5.66 2.02 6 1 C6.66 2.32 7.32 3.64 8 5 C7.34 5 6.68 5 6 5 C6 6.65 6 8.3 6 10 C4.02 10 2.04 10 0 10 C0 8.35 0 6.7 0 5 C-0.66 4.67 -1.32 4.34 -2 4 C-1.34 2.68 -0.68 1.36 0 0 Z " fill="#FBDAB0" transform="translate(5,3)"/>
<path d="M0 0 C1.32 0 2.64 0 4 0 C4.33 1.65 4.66 3.3 5 5 C3.02 5 1.04 5 -1 5 C-0.67 3.35 -0.34 1.7 0 0 Z " fill="#F9C683" transform="translate(6,8)"/>
</svg>
