<?xml version="1.0" encoding="UTF-8"?>
<!DOCTYPE svg PUBLIC "-//W3C//DTD SVG 1.1//EN" "http://www.w3.org/Graphics/SVG/1.1/DTD/svg11.dtd">
<svg xmlns="http://www.w3.org/2000/svg" version="1.1" width="32px" height="32px" style="shape-rendering:geometricPrecision; text-rendering:geometricPrecision; image-rendering:optimizeQuality; fill-rule:evenodd; clip-rule:evenodd" xmlns:xlink="http://www.w3.org/1999/xlink">
<g><path style="opacity:0.994" fill="#ff8803" d="M -0.5,-0.5 C 10.1667,-0.5 20.8333,-0.5 31.5,-0.5C 31.5,10.1667 31.5,20.8333 31.5,31.5C 20.8333,31.5 10.1667,31.5 -0.5,31.5C -0.5,20.8333 -0.5,10.1667 -0.5,-0.5 Z"/></g>
<g><path style="opacity:1" fill="#fff3e6" d="M 23.5,25.5 C 23.6661,19.8236 23.4994,14.1569 23,8.5C 21.9614,9.24382 21.4614,10.2438 21.5,11.5C 20.0818,16.4229 18.0818,21.0895 15.5,25.5C 12.9358,21.1615 10.9358,16.4948 9.5,11.5C 9.01328,10.5266 8.51328,9.52656 8,8.5C 7.50058,14.1569 7.33391,19.8236 7.5,25.5C 5.54112,19.2504 4.87445,12.5837 5.5,5.5C 6.97782,5.23798 8.31116,5.57131 9.5,6.5C 11.3076,11.2585 13.3076,15.9252 15.5,20.5C 17.6924,15.9252 19.6924,11.2585 21.5,6.5C 22.6888,5.57131 24.0222,5.23798 25.5,5.5C 26.1255,12.5837 25.4589,19.2504 23.5,25.5 Z"/></g>
<g><path style="opacity:1" fill="#ffcf99" d="M 23.5,25.5 C 22.8333,20.8333 22.1667,16.1667 21.5,11.5C 21.4614,10.2438 21.9614,9.24382 23,8.5C 23.4994,14.1569 23.6661,19.8236 23.5,25.5 Z"/></g>
<g><path style="opacity:1" fill="#ffc17b" d="M 9.5,11.5 C 8.83333,16.1667 8.16667,20.8333 7.5,25.5C 7.33391,19.8236 7.50058,14.1569 8,8.5C 8.51328,9.52656 9.01328,10.5266 9.5,11.5 Z"/></g>
</svg>
