<?xml version="1.0" standalone="no"?>
<!DOCTYPE svg PUBLIC "-//W3C//DTD SVG 20010904//EN"
 "http://www.w3.org/TR/2001/REC-SVG-20010904/DTD/svg10.dtd">
<svg version="1.0" xmlns="http://www.w3.org/2000/svg"
 width="512.000000pt" height="512.000000pt" viewBox="0 0 512.000000 512.000000"
 preserveAspectRatio="xMidYMid meet">
<metadata>
Created by potrace 1.14, written by Peter Selinger 2001-2017
</metadata>
<g transform="translate(0.000000,512.000000) scale(0.100000,-0.100000)"
fill="#000000" stroke="none">
<path d="M2335 4968 c-382 -34 -812 -189 -1136 -409 -222 -150 -487 -415 -637
-636 -301 -444 -453 -1006 -414 -1526 38 -493 216 -956 513 -1333 132 -167
366 -387 536 -502 349 -236 769 -381 1200 -414 520 -39 1082 113 1526 414 221
150 486 415 636 637 299 442 452 1005 413 1524 -38 493 -216 956 -513 1333
-132 167 -366 387 -536 502 -461 312 -1034 460 -1588 410z m83 -624 c-2 -10
-29 -24 -73 -38 -128 -41 -212 -92 -310 -191 -150 -150 -215 -305 -215 -509 0
-132 20 -221 74 -331 75 -153 183 -264 331 -339 75 -37 208 -76 262 -76 l33 0
0 -53 c0 -52 -1 -53 -36 -66 -89 -32 -140 -116 -132 -216 l5 -56 -45 -26 c-43
-25 -45 -26 -55 -7 -23 41 -145 159 -207 199 -121 78 -225 113 -370 122 -284
19 -572 -150 -703 -412 -68 -136 -91 -305 -62 -455 21 -110 22 -122 8 -127
-14 -5 -48 94 -68 201 -17 90 -20 286 -4 372 59 332 265 608 571 763 l90 46 2
180 c3 208 17 276 90 431 87 184 193 308 353 414 182 120 473 230 461 174z
m409 -15 c399 -105 695 -427 769 -839 10 -56 14 -129 12 -215 l-3 -130 100
-53 c310 -166 485 -400 554 -739 35 -169 27 -320 -25 -499 -28 -99 -30 -102
-45 -87 -8 8 -6 33 6 88 13 58 16 105 13 193 -9 203 -71 345 -213 487 -83 83
-153 130 -254 171 -310 125 -673 18 -876 -259 l-20 -27 -42 25 c-40 24 -41 27
-32 58 16 57 -13 147 -63 194 -13 12 -44 31 -70 43 -46 20 -46 20 -44 68 l1
47 52 6 c76 10 188 46 268 87 49 25 97 63 161 126 101 101 151 180 192 304 22
67 26 95 26 212 1 159 -13 219 -83 355 -87 169 -248 303 -436 360 -47 15 -71
27 -73 39 -4 19 -1 19 125 -15z m-26 -798 c79 -21 190 -68 246 -103 l33 -20
-32 -60 c-17 -33 -48 -78 -68 -101 l-37 -41 -79 36 c-114 52 -192 70 -309 70
-136 0 -202 -16 -327 -78 l-67 -33 -38 43 c-45 51 -98 150 -88 166 19 30 217
111 335 136 97 20 333 12 431 -15z m-1030 -967 l56 -16 12 -69 c31 -192 132
-359 283 -471 70 -52 70 -52 64 -91 -7 -40 -60 -175 -75 -190 -13 -13 -141 74
-221 150 -125 117 -200 231 -253 383 -39 113 -68 284 -52 309 9 16 121 13 186
-5z m1752 -55 c-5 -150 -70 -339 -166 -477 -80 -116 -259 -274 -349 -307 -21
-8 -60 65 -83 152 -20 76 -20 74 22 103 169 115 282 283 319 475 10 50 18 91
19 93 7 10 139 31 185 29 l55 -2 -2 -66z m-1041 -163 c64 -27 126 -21 193 20
l60 35 35 -20 c19 -11 34 -26 33 -33 -1 -7 -17 -53 -34 -103 -117 -336 47
-728 373 -889 124 -62 210 -79 363 -73 191 7 332 64 473 192 46 42 66 55 74
47 8 -8 -10 -32 -63 -87 -201 -208 -426 -311 -705 -322 -254 -11 -437 40 -648
177 l-78 51 -46 -35 c-114 -83 -318 -166 -457 -185 -370 -52 -714 71 -956 342
-32 36 -39 51 -31 59 9 9 25 0 65 -38 147 -142 306 -206 507 -205 274 1 502
130 642 363 111 186 135 423 62 616 -14 37 -28 74 -31 83 -3 12 8 25 38 43
l44 25 25 -24 c14 -13 42 -31 62 -39z"/>
</g>
</svg>
